<svg xmlns="http://www.w3.org/2000/svg" viewBox="0 0 700 420">
  <defs>
    <linearGradient id="g" x1="0" y1="0" x2="1" y2="1"><stop stop-color="#ffd166"/><stop offset=".55" stop-color="#7c3cff"/><stop offset="1" stop-color="#ff5dc8"/></linearGradient>
    <filter id="glow"><feGaussianBlur stdDeviation="6" result="b"/><feMerge><feMergeNode in="b"/><feMergeNode in="SourceGraphic"/></feMerge></filter>
  </defs>
  <rect width="700" height="420" rx="60" fill="#090514"/>
  <g fill="none" stroke="url(#g)" stroke-width="10" stroke-linecap="round" stroke-linejoin="round" filter="url(#glow)">
    <path d="M206 265c-62 0-102-39-102-90 0-46 34-82 80-88 12-47 53-73 101-64 22-34 72-42 107-20 40-25 94-6 106 38 57 4 99 44 99 96 0 60-48 100-109 100"/>
    <path d="M202 146c35 1 57 26 54 59M286 82c35 20 48 54 31 92M402 67c-32 27-36 66-13 100M484 95c-34 15-50 45-43 87M211 256c42-18 86-14 121 12M355 244c43-20 88-14 125 17"/>
    <path d="M270 320c35 35 101 35 144 0"/>
  </g>
  <text x="350" y="230" text-anchor="middle" font-size="78" font-family="Arial" font-weight="900" fill="#ffd166">IA</text>
</svg>
