<svg xmlns="http://www.w3.org/2000/svg" viewBox="0 0 900 1200">
  <defs>
    <linearGradient id="bg" x1="0" y1="0" x2="1" y2="1"><stop stop-color="#1a0734"/><stop offset=".55" stop-color="#090514"/><stop offset="1" stop-color="#2b1308"/></linearGradient>
    <radialGradient id="light" cx="50%" cy="25%" r="55%"><stop stop-color="#ffd166" stop-opacity=".45"/><stop offset=".45" stop-color="#7c3cff" stop-opacity=".35"/><stop offset="1" stop-color="#000" stop-opacity="0"/></radialGradient>
    <filter id="blur"><feGaussianBlur stdDeviation="18"/></filter>
  </defs>
  <rect width="900" height="1200" fill="url(#bg)"/>
  <rect width="900" height="1200" fill="url(#light)"/>
  <g opacity=".35" filter="url(#blur)">
    <circle cx="120" cy="280" r="50" fill="#ffd166"/><circle cx="760" cy="220" r="42" fill="#b85cff"/><circle cx="420" cy="190" r="38" fill="#fff"/>
  </g>
  <g opacity=".42">
    <path d="M0 720 C180 620 280 820 440 710 C600 600 720 820 900 680" fill="none" stroke="#7c3cff" stroke-width="9"/>
    <path d="M0 780 C190 700 300 880 460 760 C640 630 730 875 900 735" fill="none" stroke="#ffd166" stroke-width="4" opacity=".7"/>
  </g>
  <g transform="translate(220 330)">
    <ellipse cx="125" cy="90" rx="70" ry="82" fill="#12080a"/>
    <path d="M88 36 C45 84 53 146 110 166 C154 181 205 154 212 102 C180 132 147 100 154 47 C135 31 111 27 88 36Z" fill="#210b08"/>
    <path d="M88 180 C38 225 28 395 72 530 L222 530 C252 390 235 235 184 180Z" fill="#050308"/>
    <path d="M66 245 C10 300 -24 398 -4 430 C15 461 58 395 95 340" fill="none" stroke="#35130c" stroke-width="36" stroke-linecap="round"/>
    <path d="M205 246 C292 292 352 283 406 238" fill="none" stroke="#35130c" stroke-width="34" stroke-linecap="round"/>
  </g>
  <g transform="translate(390 300)">
    <ellipse cx="170" cy="105" rx="78" ry="90" fill="#0f0606"/>
    <path d="M114 52 C205 -25 272 38 260 135 C215 85 157 104 136 172 C101 147 91 91 114 52Z" fill="#070203"/>
    <path d="M120 202 C70 270 60 435 84 565 L268 565 C310 420 285 268 220 202Z" fill="#030204"/>
    <path d="M116 270 C58 337 10 340 -50 310" fill="none" stroke="#2b110b" stroke-width="38" stroke-linecap="round"/>
    <path d="M270 284 C332 344 358 452 332 505" fill="none" stroke="#2b110b" stroke-width="36" stroke-linecap="round"/>
  </g>
  <g opacity=".28">
    <circle cx="80" cy="760" r="58" fill="#000"/><circle cx="790" cy="765" r="70" fill="#000"/><circle cx="120" cy="870" r="55" fill="#000"/><circle cx="735" cy="895" r="50" fill="#000"/>
  </g>
</svg>
