<svg width="960" height="960" viewBox="0 0 960 960" fill="none" xmlns="http://www.w3.org/2000/svg">
  <rect width="960" height="960" rx="220" fill="url(#bg)"/>
  <g filter="url(#glow)">
    <path d="M493 125c-78 0-140 42-168 106-21 48-14 104 20 143 23 27 54 42 93 43 35 1 67-11 94-35 44-39 54-101 25-151-16-27-42-45-72-52-20-5-41-4-60 3 22-18 45-27 68-27 88 0 164 84 164 187 0 124-92 224-207 224-73 0-140-38-178-100-25 69-70 121-132 156 67-3 128 20 178 65 49 45 97 85 159 85 83 0 158-54 188-137-5 110-87 205-194 222-82 13-148-19-210-72-66-56-117-76-183-58l-16 5 7-16c42-90 117-150 220-178-41-53-58-120-45-185 25-132 130-229 249-229z" fill="url(#gold)"/>
    <path d="M258 660c79-95 197-120 311-94 115 26 204-2 269-88-35 112-140 180-261 169-103-9-187-62-319 13z" fill="url(#gold2)" opacity=".95"/>
    <path d="M273 280c-46 29-82 70-106 123-71 156 35 341 208 362 17 2 34 2 50 1" stroke="url(#goldStroke)" stroke-width="24" stroke-linecap="round"/>
    <path d="M713 300c62 73 82 176 48 270" stroke="url(#goldStroke)" stroke-width="24" stroke-linecap="round"/>
    <path d="M483 91l26 54 60 9-43 42 10 59-53-28-53 28 10-59-43-42 60-9 26-54z" fill="url(#gold)"/>
    <path d="M207 704l21 44 49 7-35 34 8 48-43-23-43 23 8-48-35-34 49-7 21-44z" fill="url(#gold)"/>
  </g>
  <text x="480" y="858" fill="url(#gold)" text-anchor="middle" font-size="88" font-family="Georgia, serif" letter-spacing="26">KM</text>
  <defs>
    <radialGradient id="bg" cx="0" cy="0" r="1" gradientUnits="userSpaceOnUse" gradientTransform="translate(640 140) rotate(124) scale(1060)">
      <stop stop-color="#3b1559"/>
      <stop offset=".45" stop-color="#16091f"/>
      <stop offset="1" stop-color="#050508"/>
    </radialGradient>
    <linearGradient id="gold" x1="212" y1="90" x2="738" y2="856" gradientUnits="userSpaceOnUse">
      <stop stop-color="#FFF0A8"/>
      <stop offset=".22" stop-color="#D4AF37"/>
      <stop offset=".52" stop-color="#F7D879"/>
      <stop offset=".82" stop-color="#9C6B16"/>
      <stop offset="1" stop-color="#F2CE7A"/>
    </linearGradient>
    <linearGradient id="gold2" x1="132" y1="571" x2="836" y2="665" gradientUnits="userSpaceOnUse">
      <stop stop-color="#6E3F12"/>
      <stop offset=".4" stop-color="#D4AF37"/>
      <stop offset="1" stop-color="#FFF0A8"/>
    </linearGradient>
    <linearGradient id="goldStroke" x1="128" y1="238" x2="793" y2="769" gradientUnits="userSpaceOnUse">
      <stop stop-color="#F7D879"/>
      <stop offset=".55" stop-color="#D4AF37"/>
      <stop offset="1" stop-color="#8B5E10"/>
    </linearGradient>
    <filter id="glow" x="20" y="20" width="920" height="920" filterUnits="userSpaceOnUse" color-interpolation-filters="sRGB">
      <feDropShadow dx="0" dy="0" stdDeviation="16" flood-color="#D4AF37" flood-opacity=".28"/>
      <feDropShadow dx="0" dy="20" stdDeviation="35" flood-color="#000000" flood-opacity=".8"/>
    </filter>
  </defs>
</svg>
