<svg width="420" height="420" viewBox="0 0 420 420" fill="none" xmlns="http://www.w3.org/2000/svg">
  <defs>
    <radialGradient id="glow" cx="50%" cy="45%" r="65%">
      <stop offset="0%" stop-color="#FFDFA0" stop-opacity="0.55"/>
      <stop offset="48%" stop-color="#D4AF37" stop-opacity="0.18"/>
      <stop offset="100%" stop-color="#000000" stop-opacity="0"/>
    </radialGradient>
    <linearGradient id="gold" x1="84" y1="48" x2="325" y2="360" gradientUnits="userSpaceOnUse">
      <stop stop-color="#FFF2B8"/>
      <stop offset="0.28" stop-color="#D4AF37"/>
      <stop offset="0.55" stop-color="#F8D679"/>
      <stop offset="0.78" stop-color="#9F6E17"/>
      <stop offset="1" stop-color="#FFE7A8"/>
    </linearGradient>
    <filter id="soft" x="-20%" y="-20%" width="140%" height="140%">
      <feGaussianBlur stdDeviation="2" result="blur"/>
      <feMerge><feMergeNode in="blur"/><feMergeNode in="SourceGraphic"/></feMerge>
    </filter>
  </defs>
  <rect width="420" height="420" fill="transparent"/>
  <circle cx="210" cy="210" r="190" fill="url(#glow)" opacity=".7"/>

  <!-- crown -->
  <path d="M173 68L190 91L210 58L230 91L247 68L255 108H165L173 68Z" stroke="url(#gold)" stroke-width="8" stroke-linejoin="round" filter="url(#soft)"/>
  <circle cx="173" cy="68" r="7" fill="url(#gold)"/>
  <circle cx="210" cy="58" r="8" fill="url(#gold)"/>
  <circle cx="247" cy="68" r="7" fill="url(#gold)"/>

  <!-- oval frame -->
  <path d="M210 105C273 105 316 158 305 223C294 290 251 332 210 349C169 332 126 290 115 223C104 158 147 105 210 105Z" stroke="url(#gold)" stroke-width="9" stroke-linecap="round"/>

  <!-- dancer abstract -->
  <path d="M194 145C185 153 185 168 196 177C208 187 226 181 231 167C236 153 224 139 210 139C204 139 198 141 194 145Z" fill="url(#gold)"/>
  <path d="M250 151C241 158 239 169 244 178C251 189 267 188 274 178C283 164 270 147 256 148C254 148 252 149 250 151Z" fill="url(#gold)"/>
  <path d="M210 183C228 203 248 222 271 240C255 247 238 248 220 242C205 236 192 225 181 209C170 226 160 245 150 266C168 263 182 260 194 256C209 274 229 288 254 297C229 312 199 310 176 292C158 277 149 257 148 232C144 250 140 273 135 300" stroke="url(#gold)" stroke-width="22" stroke-linecap="round" stroke-linejoin="round"/>
  <path d="M180 207C161 202 147 192 137 177" stroke="url(#gold)" stroke-width="14" stroke-linecap="round"/>
  <path d="M230 199C250 197 267 189 282 176" stroke="url(#gold)" stroke-width="14" stroke-linecap="round"/>

  <!-- infinity ribbon -->
  <path d="M84 322C130 278 172 280 210 326C248 280 290 278 336 322C293 350 251 352 210 326C169 352 127 350 84 322Z" stroke="url(#gold)" stroke-width="12" stroke-linecap="round" stroke-linejoin="round"/>
  <path d="M86 323C127 347 169 347 210 326C251 347 293 347 334 323" stroke="url(#gold)" stroke-width="5" stroke-opacity=".75"/>

  <!-- star -->
  <path d="M118 292L126 310L144 318L126 326L118 344L110 326L92 318L110 310L118 292Z" fill="url(#gold)"/>
  <path d="M304 132L309 144L321 149L309 154L304 166L299 154L287 149L299 144L304 132Z" fill="#FFF0BA"/>
</svg>
